<svg width="88" height="88" viewBox="0 0 88 88" fill="none" xmlns="http://www.w3.org/2000/svg">
<g clip-path="url(#clip0_3_81)">
<path d="M53.9513 31.7863L45.1513 39.9813L36.982 23.496L41.2023 14.0177C42.2693 12.1257 44.0147 12.1037 45.0817 14.0177L53.9513 31.7863Z" fill="#FFA000"/>
<path d="M45.1513 39.9777L12.2283 70.598L36.982 23.496L45.1513 39.9777Z" fill="#F57F17"/>
<path d="M63.602 19.2537C65.1787 17.7503 66.803 18.26 67.2137 20.3903L75.7717 70.1837L47.3843 87.2263C46.387 87.7837 43.747 88 43.747 88C43.747 88 41.3453 87.7067 40.425 87.2007L12.232 70.598L63.602 19.2537Z" fill="#FFCA28"/>
<path d="M36.982 23.496L12.232 70.598L23.2613 1.74899C23.6757 -0.385013 24.8857 -0.601346 25.9747 1.28699L36.982 23.496Z" fill="#FFA000"/>
</g>
<defs>
<clipPath id="clip0_3_81">
<rect width="88" height="88" fill="white"/>
</clipPath>
</defs>
</svg>
