<svg width="88" height="88" viewBox="0 0 88 88" fill="none" xmlns="http://www.w3.org/2000/svg">
<g clip-path="url(#clip0_3_37)">
<g filter="url(#filter0_d_3_37)">
<rect x="-19" y="-20" width="128" height="128" fill="#614BC3"/>
</g>
<path d="M0 0H88V88H0V0Z" fill="#F7DF1E"/>
<path d="M23.1385 73.5391L29.8726 69.4636C31.1719 71.7671 32.3537 73.7162 35.1887 73.7162C37.906 73.7162 39.6196 72.6533 39.6196 68.5187V40.4006H47.8892V68.6355C47.8892 77.2008 42.8684 81.0996 35.5431 81.0996C28.9276 81.0996 25.0876 77.6734 23.1382 73.5384M52.381 72.6529L59.1143 68.7545C60.8871 71.6492 63.1909 73.7756 67.2664 73.7756C70.6932 73.7756 72.8781 72.0624 72.8781 69.6994C72.8781 66.8642 70.6334 65.8598 66.8528 64.2063L64.7859 63.3194C58.8194 60.7802 54.8618 57.5902 54.8618 50.8561C54.8618 44.6535 59.5873 39.9276 66.9714 39.9276C72.2287 39.9276 76.0093 41.7591 78.7263 46.5438L72.2872 50.6791C70.8692 48.1391 69.334 47.135 66.9711 47.135C64.549 47.135 63.0132 48.6709 63.0132 50.6791C63.0132 53.1599 64.549 54.1647 68.0931 55.7006L70.1604 56.5864C77.1901 59.5994 81.1477 62.6708 81.1477 69.5815C81.1477 77.0251 75.2998 81.1006 67.4434 81.1006C59.7644 81.1006 54.8023 77.4383 52.3806 72.6533" fill="black"/>
</g>
<defs>
<filter id="filter0_d_3_37" x="-23" y="-20" width="136" height="136" filterUnits="userSpaceOnUse" color-interpolation-filters="sRGB">
<feFlood flood-opacity="0" result="BackgroundImageFix"/>
<feColorMatrix in="SourceAlpha" type="matrix" values="0 0 0 0 0 0 0 0 0 0 0 0 0 0 0 0 0 0 127 0" result="hardAlpha"/>
<feOffset dy="4"/>
<feGaussianBlur stdDeviation="2"/>
<feComposite in2="hardAlpha" operator="out"/>
<feColorMatrix type="matrix" values="0 0 0 0 0 0 0 0 0 0 0 0 0 0 0 0 0 0 0.25 0"/>
<feBlend mode="normal" in2="BackgroundImageFix" result="effect1_dropShadow_3_37"/>
<feBlend mode="normal" in="SourceGraphic" in2="effect1_dropShadow_3_37" result="shape"/>
</filter>
<clipPath id="clip0_3_37">
<rect width="88" height="88" fill="white"/>
</clipPath>
</defs>
</svg>
