<svg width="73" height="73" viewBox="0 0 73 73" fill="none" xmlns="http://www.w3.org/2000/svg">
<path fill-rule="evenodd" clip-rule="evenodd" d="M49.7649 57.1105C49.8613 56.9252 49.9537 56.7615 50.0324 56.5921C50.082 56.4837 50.1584 56.4621 50.2662 56.4649C50.9124 56.4832 51.5585 56.5031 52.2053 56.5094C52.7545 56.5151 53.3048 56.5048 53.8546 56.4986C54.474 56.4912 55.0933 56.4587 55.7121 56.4763C56.5362 56.5003 57.3392 56.6617 58.0846 57.0284C58.9749 57.467 59.6484 58.1348 60.1075 59.0148C60.4006 59.5765 60.5706 60.1725 60.6385 60.8056C60.7366 61.7226 60.6721 62.6186 60.3813 63.4957C60.0208 64.5828 59.3364 65.4148 58.3857 66.0382C57.654 66.5178 56.8516 66.8013 55.9916 66.9632C55.0813 67.1349 54.1683 67.0796 53.2552 67.0824C52.2537 67.0864 51.2528 67.0648 50.2514 67.0533C50.0763 67.0516 50.0512 67.0186 50.0974 66.8515L50.1402 66.6975C50.2377 66.3906 50.2901 66.377 50.6015 66.3256C50.8171 66.2908 51.0407 66.2099 51.2215 66.0901C51.3264 66.0205 51.3697 65.8392 51.4108 65.6994C51.4462 65.5774 51.4479 65.4434 51.449 65.3145C51.4633 63.3611 51.4781 61.4084 51.4861 59.4562C51.4878 58.9629 51.4764 58.4684 51.449 57.9757C51.4296 57.6306 51.2454 57.3945 50.8348 57.313C50.5154 57.2497 50.1938 57.2006 49.8727 57.1442L49.7649 57.1105ZM58.9332 61.8401C58.8899 61.4512 58.8688 61.0588 58.7992 60.6755C58.6327 59.7556 58.23 58.9543 57.5229 58.3264C56.3794 57.3118 55.0026 57.1556 53.5598 57.2765C53.2313 57.3039 53.1605 57.4162 53.1554 57.7538C53.1474 58.2329 53.1394 58.712 53.1389 59.191C53.1366 60.7103 53.1366 62.2296 53.1389 63.749C53.1394 64.1813 53.144 64.6136 53.1565 65.0447C53.1702 65.4861 53.3305 65.8597 53.7628 66.0308C54.4443 66.3005 55.1612 66.3325 55.8764 66.2224C57.0187 66.0473 57.8177 65.3818 58.3538 64.3843C58.7781 63.5927 58.8979 62.7287 58.9332 61.8401ZM61.7101 67.0134C61.6964 66.7767 61.7934 66.5811 61.9131 66.4015C61.9456 66.353 62.0574 66.3553 62.1344 66.3399L62.788 66.2104C63.019 66.1614 63.1404 66.0063 63.1729 65.7798C63.1946 65.6304 63.2151 65.4793 63.2169 65.3282C63.2311 64.1322 63.2448 62.9363 63.2505 61.7403C63.2562 60.5427 63.2516 59.345 63.2516 58.1473L63.2465 57.9187C63.2231 57.5337 63.0372 57.3341 62.6551 57.2776L61.8264 57.1516C61.7243 57.1379 61.6873 57.0888 61.7243 56.9982C61.7882 56.8436 61.8492 56.6834 61.9394 56.5442C61.973 56.4929 62.0865 56.4729 62.1629 56.4746C62.5587 56.4803 62.9545 56.51 63.3503 56.5094L66.7956 56.4889C67.4594 56.4883 68.1004 56.6041 68.6958 56.9217C69.3511 57.2708 69.7178 57.8109 69.8228 58.5466C69.9323 59.3193 69.6979 59.9706 69.1333 60.4879C68.9012 60.7012 68.6006 60.8404 68.3314 61.0137L68.2436 61.0685C68.4934 61.1603 68.7312 61.2396 68.9627 61.3343C69.6403 61.612 70.1792 62.046 70.4644 62.7389C70.6897 63.2859 70.6897 63.8562 70.5562 64.4231C70.3486 65.3105 69.764 65.9007 69.0038 66.3473C68.2903 66.7665 67.5181 67.0106 66.6958 67.0516C65.9372 67.0898 65.1753 67.0756 64.4151 67.0841L63.9748 67.0864C63.2425 67.0699 62.5097 67.0511 61.7768 67.0317L61.7101 67.0134ZM64.8679 63.5408H64.8753C64.8753 63.9161 64.8702 64.2913 64.877 64.6666C64.8816 64.9095 64.873 65.1593 64.9255 65.3932C65.0042 65.7428 65.1639 66.0582 65.5563 66.1585C66.0861 66.2948 66.6273 66.3222 67.1634 66.2292C67.8347 66.1123 68.3702 65.7758 68.6639 65.1365C68.8818 64.6615 68.9143 64.1579 68.8396 63.6435C68.7403 62.9659 68.3805 62.4743 67.7822 62.1521C67.3898 61.9405 66.9712 61.811 66.5252 61.7939C66.0256 61.7751 65.5255 61.774 65.0259 61.7586C64.8856 61.7546 64.8662 61.8259 64.8668 61.9411C64.8696 62.4737 64.8679 63.007 64.8679 63.5408ZM65.9315 60.9886C66.2047 60.975 66.5138 60.971 66.8212 60.9402C67.4098 60.8814 67.8244 60.5854 68.0406 60.0225C68.1506 59.7368 68.1461 59.4425 68.1489 59.1454C68.1575 58.3715 67.7058 57.7373 66.9706 57.475C66.4032 57.2725 65.818 57.2691 65.2295 57.285C64.9911 57.2913 64.8844 57.3957 64.881 57.6358L64.8457 60.7662C64.844 60.8906 64.8976 60.9442 65.0185 60.9482L65.9315 60.9886Z" fill="#94795D"/>
<path fill-rule="evenodd" clip-rule="evenodd" d="M6.01281 66.4117L5.97118 66.9501C5.58336 66.9501 5.22578 66.9473 4.86819 66.9513C4.19465 66.9581 3.52111 66.9689 2.847 66.9786L2.78199 66.9826C2.6856 66.9712 2.51052 66.9712 2.50596 66.9427C2.47744 66.7824 2.48657 66.6142 2.49398 66.4482C2.49455 66.4294 2.56014 66.4055 2.59835 66.3963L3.12246 66.2794C3.44925 66.1945 3.56446 66.0536 3.57986 65.716C3.59753 65.3356 3.61521 64.9546 3.61693 64.5742C3.62206 63.6377 3.61636 62.7024 3.62035 61.766C3.62092 61.547 3.54507 61.3839 3.34089 61.2949C3.09794 61.1877 2.85385 61.0827 2.60804 60.9835C2.4917 60.9367 2.34057 60.9111 2.35425 60.7548C2.36794 60.5957 2.51451 60.5541 2.65253 60.5227C3.22398 60.3921 3.796 60.2649 4.36575 60.1258C4.54939 60.0807 4.72504 60.0049 4.94461 59.9284C4.95602 60.0471 4.97712 60.16 4.97484 60.2729L4.94119 60.8096C4.94062 60.87 4.97199 60.951 5.01704 60.9847C5.04442 61.0058 5.13624 60.9675 5.18186 60.9322C5.66891 60.5615 6.18447 60.2415 6.77246 60.055C7.68325 59.7659 8.46515 60.0339 9.01265 60.8193C9.20542 61.0959 9.20599 61.0959 9.47346 60.9025C9.93257 60.5689 10.4128 60.2746 10.95 60.0807C12.1294 59.6547 13.2626 60.1953 13.6727 61.3833C13.8221 61.8145 13.8791 62.2599 13.878 62.715L13.8672 65.7365C13.8666 65.9857 13.9493 66.1277 14.1865 66.2053C14.4529 66.2926 14.7289 66.3524 15.0289 66.4311L14.9593 66.9507C14.6183 66.9507 14.3046 66.9484 13.9909 66.9513C13.2244 66.9581 12.4579 66.9621 11.692 66.9798C11.5585 66.9832 11.5237 66.9501 11.5169 66.8252C11.4947 66.4254 11.4912 66.426 11.8676 66.3359L11.9942 66.3034C12.3621 66.203 12.4847 66.0901 12.4876 65.7171C12.4961 64.6461 12.5184 63.5722 12.4642 62.5034C12.4077 61.3947 11.5277 60.8044 10.4533 61.0884C10.1025 61.1808 9.78486 61.3428 9.48943 61.5527C9.38963 61.624 9.37081 61.7061 9.37879 61.831C9.40902 62.3032 9.42784 62.776 9.43183 63.2488C9.43868 64.0763 9.42841 64.9038 9.43183 65.7319C9.43297 66.0673 9.54761 66.1956 9.87896 66.2732L10.3711 66.3867L10.4624 66.4072C10.4692 66.5646 10.4755 66.722 10.4681 66.8794C10.4635 66.9781 10.3871 66.9866 10.3016 66.9849C9.82307 66.9729 9.344 66.957 8.86551 66.9581C8.28322 66.9592 7.7015 66.9758 7.11979 66.9861H6.98291C6.98291 66.819 6.97493 66.6593 6.98861 66.5001C6.99146 66.4619 7.05876 66.4083 7.10496 66.3963L7.67869 66.2749C7.92221 66.215 8.03856 66.0901 8.05225 65.8426C8.11726 64.6962 8.16403 63.5493 8.05624 62.4036C8.03514 62.1812 7.96271 61.9553 7.87032 61.7506C7.57661 61.1016 6.91561 60.8307 6.15311 61.0257C5.79096 61.1181 5.46417 61.2841 5.15506 61.4934C5.00906 61.5926 4.93948 61.7238 4.93948 61.8897C4.93948 63.0332 4.94347 64.1767 4.94689 65.3196L4.95317 65.7605C4.96001 66.0678 5.09061 66.2298 5.39573 66.296C5.59192 66.3405 5.79039 66.3707 6.01281 66.4117Z" fill="#50382B"/>
<path fill-rule="evenodd" clip-rule="evenodd" d="M40.4928 60.0454C40.5812 60.4754 40.5794 60.862 40.2635 61.1552C39.9498 61.4466 39.5529 61.3485 39.1656 61.2835C39.2016 61.4877 39.2415 61.6611 39.2609 61.8367C39.4018 63.1422 38.84 64.1111 37.6292 64.6649C37.1718 64.8736 36.6865 64.9512 36.1909 64.9911C35.9445 65.0105 35.7289 65.1987 35.7056 65.4012C35.6816 65.6065 35.8105 65.8175 36.0683 65.8791C36.3722 65.9515 36.6893 65.972 37.0013 66.008C37.6708 66.0844 38.3478 66.1192 39.0094 66.2389C40.0097 66.4192 40.568 67.2923 40.3918 68.2972C40.235 69.1915 39.7171 69.8422 38.9951 70.3412C37.7786 71.1841 36.4441 71.4305 35.0229 71.0005C34.2102 70.7541 33.637 70.2197 33.4391 69.3551C33.3399 68.9223 33.4454 68.5305 33.7711 68.2368C34.1583 67.8889 34.5798 67.5786 34.9852 67.2501L35.1164 67.1184L34.9659 67.0129C34.5524 66.8167 34.2216 66.5481 34.0933 66.0815C34.0494 65.9236 34.095 65.8198 34.229 65.7388C34.4571 65.6013 34.6841 65.4616 34.9094 65.3196C35.0155 65.2534 35.1204 65.185 35.2191 65.1086C35.3537 65.0059 35.3417 64.9295 35.1809 64.8702C34.8067 64.7322 34.4742 64.532 34.2165 64.224C33.7859 63.7102 33.6638 63.0982 33.6992 62.4521C33.7545 61.4426 34.3026 60.7776 35.1934 60.3499C36.2525 59.8418 37.315 59.8098 38.3946 60.2729C38.7938 60.444 39.2147 60.4805 39.643 60.4508C39.9629 60.428 40.2424 60.3071 40.4928 60.0454ZM36.5901 67.2775C35.7951 67.2706 35.5459 67.3687 35.0793 67.8438C34.5569 68.3765 34.5598 69.115 35.0811 69.65C35.4769 70.0555 35.9708 70.2454 36.52 70.3024C37.1616 70.3686 37.7935 70.3418 38.3763 70.0207C38.998 69.6768 39.3071 69.038 39.1674 68.3947C39.0516 67.8638 38.6603 67.6208 38.1841 67.4811C37.6423 67.3225 37.0823 67.2923 36.5901 67.2775ZM35.0286 62.1971C35.0577 62.4179 35.0697 62.6414 35.1187 62.8576C35.2459 63.4176 35.4894 63.9098 36.0466 64.159C36.7007 64.4527 37.5363 64.3267 37.8226 63.4085C38.0187 62.7794 37.9948 62.1549 37.7581 61.5413C37.6526 61.2675 37.4826 61.036 37.2391 60.866C36.6711 60.4697 35.6462 60.4172 35.2288 61.2932C35.093 61.5778 35.04 61.8806 35.0286 62.1971Z" fill="#4F382B"/>
<path fill-rule="evenodd" clip-rule="evenodd" d="M27.0043 59.9045C27.0254 60.002 27.0676 60.1127 27.0687 60.2239C27.0705 60.4354 27.0476 60.647 27.0357 60.8586V61.0423L27.2147 60.9054C27.7052 60.5016 28.2322 60.1577 28.8458 59.9724C29.9534 59.6387 31.0598 60.245 31.4208 61.373C31.5577 61.8019 31.6119 62.2428 31.617 62.691C31.6284 63.6868 31.6352 64.6826 31.6455 65.6783C31.6489 66.0359 31.69 66.0998 32.0282 66.203C32.2198 66.2618 32.4177 66.3028 32.6156 66.3336C32.7245 66.3507 32.7713 66.3935 32.7656 66.5002L32.7667 66.5982C32.7627 67.0106 32.7342 67.0294 32.3344 67.0283C31.3775 67.0266 30.421 67.0323 29.4641 67.0402C29.1789 67.0425 29.1783 67.0511 29.1498 66.7693L29.1441 66.6074C29.1618 66.3644 29.1675 66.3667 29.4065 66.3313C29.5673 66.3074 29.727 66.2703 29.8838 66.2293C30.0452 66.1876 30.1228 66.0684 30.1444 65.9087C30.1553 65.8278 30.1695 65.7468 30.169 65.6658C30.1553 64.5776 30.173 63.4883 30.1136 62.4019C30.0657 61.523 29.395 60.9995 28.5128 61.0594C28.0799 61.0896 27.6887 61.2339 27.3317 61.4831C27.0961 61.6479 27.0488 61.8858 27.0499 62.1418C27.0545 63.1593 27.0642 64.1767 27.075 65.1947C27.0773 65.4177 27.0836 65.6407 27.1047 65.862C27.1269 66.1038 27.2119 66.2013 27.4491 66.2538C27.6761 66.304 27.9077 66.333 28.1501 66.3735L28.1706 66.5606C28.1786 66.9969 28.1329 67.0294 27.7092 67.0277C26.7197 67.0237 25.7302 67.03 24.7413 67.0408C24.5856 67.0431 24.5194 66.994 24.5234 66.8423L24.5212 66.7773C24.4955 66.3844 24.5069 66.3696 24.8787 66.3057L25.0544 66.2703C25.457 66.1796 25.5603 66.0724 25.566 65.6635C25.5848 64.3683 25.5916 63.0737 25.6048 61.7785C25.6065 61.5926 25.5363 61.4483 25.3629 61.3713C25.12 61.2641 24.8748 61.162 24.6289 61.0611C24.4932 61.0052 24.3381 60.9698 24.333 60.7822C24.3295 60.6499 24.471 60.533 24.6643 60.4936C25.0527 60.4149 25.4445 60.3493 25.8283 60.253C26.2104 60.1577 26.5857 60.03 27.0043 59.9045Z" fill="#4F372B"/>
<path fill-rule="evenodd" clip-rule="evenodd" d="M48.3996 63.2876C48.3813 64.4972 48.0671 65.4753 47.2116 66.2093C46.128 67.1406 44.4376 67.4571 43.0557 66.7608C42.466 66.4637 42.0326 66.008 41.7503 65.4166C41.3174 64.5069 41.2091 63.5505 41.4349 62.5707C41.6585 61.6017 42.2453 60.8997 43.1236 60.4451C44.027 59.9781 44.9783 59.7956 45.9814 60.0408C47.2504 60.3505 48.1623 61.385 48.3437 62.7024C48.3762 62.9334 48.3887 63.1672 48.3996 63.2876ZM46.9299 63.9429L46.8808 63.9372C46.8808 63.8231 46.8871 63.709 46.8797 63.595C46.8381 62.8844 46.6784 62.2074 46.2666 61.6126C45.8759 61.0491 45.3438 60.7166 44.6515 60.6681C43.8764 60.6134 43.2251 61.0468 42.9964 61.8384C42.6531 63.027 42.7694 64.1853 43.3728 65.274C43.6358 65.7485 44.0253 66.0987 44.5471 66.2829C45.5697 66.6427 46.4765 66.1768 46.7428 65.1297C46.8409 64.743 46.8694 64.3387 46.9299 63.9429Z" fill="#4F382B"/>
<path fill-rule="evenodd" clip-rule="evenodd" d="M23.2796 63.3811C23.2585 64.2491 23.0537 65.0515 22.5177 65.749C21.9433 66.4961 21.154 66.8954 20.2564 67.0636C19.195 67.2621 18.1981 67.0819 17.3455 66.3695C16.9406 66.0308 16.664 65.5968 16.4815 65.1029C16.182 64.293 16.1073 63.4632 16.2915 62.6174C16.4883 61.7124 16.9993 61.0206 17.7915 60.5563C18.7074 60.0208 19.6957 59.7819 20.7514 60.0225C22.1087 60.3328 22.8923 61.2173 23.1821 62.5564C23.2402 62.8268 23.2482 63.1062 23.2796 63.3811ZM21.7934 63.9537L21.754 63.948V63.7849C21.7318 62.9887 21.5761 62.2302 21.101 61.5686C20.7491 61.0776 20.278 60.7696 19.6741 60.6835C18.6897 60.5432 18.0464 61.1272 17.8331 61.9205C17.5548 62.9568 17.642 63.9805 18.0726 64.9631C18.3413 65.5757 18.7656 66.053 19.4174 66.2846C20.4337 66.6456 21.3542 66.1676 21.6114 65.1245C21.7061 64.743 21.7346 64.3449 21.7934 63.9537Z" fill="#4F372B"/>
<path fill-rule="evenodd" clip-rule="evenodd" d="M46.9721 19.1306C47.6719 21.1535 48.1749 23.2186 48.3408 25.3584C48.5461 28.0137 48.4526 30.6509 47.8926 33.2623L47.8207 33.4711C47.6451 33.4716 47.466 33.4494 47.2943 33.4762C45.844 33.7043 44.3954 33.9404 42.9462 34.1754C41.448 34.4184 39.9487 34.6516 38.4533 34.9105C37.9235 35.0018 37.2676 34.8929 37.0538 35.6251L36.9511 35.6599L37.0236 31.2811L36.95 20.7155L37.648 20.5957C38.7892 20.4092 39.9304 20.2193 41.0733 20.0374C42.4364 19.8212 43.8006 19.6102 45.1648 19.3992C45.767 19.3068 46.3698 19.2207 46.9721 19.1306Z" fill="#439934"/>
<path fill-rule="evenodd" clip-rule="evenodd" d="M35.5105 48.4258C34.7742 47.7928 34.0123 47.1877 33.3068 46.5215C29.5097 42.94 26.7317 38.7237 25.3635 33.6405C24.9865 32.2421 24.7356 30.8203 24.6546 29.3751C24.5976 28.3634 24.516 27.3431 24.5879 26.3365C24.7778 23.66 25.165 21.0092 25.9498 18.4308L25.9931 18.3709C26.0696 18.4724 26.1791 18.5625 26.2178 18.6772C26.9843 20.9333 27.7446 23.1918 28.5014 25.4519C30.879 32.5529 33.2538 39.6555 35.6354 46.7554C35.6822 46.8939 35.8025 47.0074 35.8892 47.1323L35.5105 48.4258Z" fill="#45A538"/>
<path fill-rule="evenodd" clip-rule="evenodd" d="M46.9721 19.1306C46.3693 19.2201 45.7664 19.3068 45.1648 19.3992C43.8006 19.6102 42.4364 19.8212 41.0733 20.0373C39.931 20.2187 38.7898 20.4086 37.648 20.5957L36.95 20.7155L36.9443 20.2603C36.9209 19.8862 36.8821 19.5121 36.877 19.138L36.7988 11.9783C36.7806 10.4846 36.7532 8.99097 36.723 7.49789C36.7042 6.56999 36.6842 5.64152 36.6426 4.71476C36.6198 4.21688 36.5393 3.72128 36.5074 3.2234C36.4886 2.9371 36.5137 2.64852 36.52 2.36108C36.8758 3.05059 37.2243 3.74523 37.5899 4.42961C38.1676 5.51149 39.0886 6.30879 39.9185 7.17851C43.1955 10.6181 45.5218 14.6148 46.9721 19.1306Z" fill="#46A037"/>
<path fill-rule="evenodd" clip-rule="evenodd" d="M36.9517 35.6599L37.0543 35.6251C37.2682 34.8929 37.9241 35.0018 38.4539 34.9105C39.9493 34.6516 41.4486 34.4184 42.9468 34.1754C44.396 33.941 45.8446 33.7049 47.2949 33.4762C47.4665 33.4494 47.6456 33.4716 47.8213 33.4711C47.5504 34.4383 47.3371 35.4267 46.9932 36.3671C46.6025 37.4336 46.1303 38.475 45.629 39.4959C44.8796 41.0214 43.946 42.4449 42.8613 43.7492C42.0252 44.7541 41.0933 45.6843 40.1597 46.6019C39.643 47.109 39.035 47.5224 38.4681 47.9787L38.321 47.8783L37.7923 47.4266L37.2454 46.2267C36.8684 44.8226 36.6711 43.3934 36.638 41.9402L36.6483 41.6961L36.723 40.6388C36.7475 40.2778 36.7806 39.9173 36.796 39.5563C36.8507 38.2583 36.8998 36.9591 36.9517 35.6599Z" fill="#409433"/>
<path fill-rule="evenodd" clip-rule="evenodd" d="M36.9517 35.6599C36.9004 36.9591 36.8513 38.2589 36.796 39.558C36.7806 39.9196 36.7481 40.28 36.723 40.6405L36.3899 40.7665C35.6497 38.5874 34.9088 36.431 34.1845 34.2695C32.9863 30.6931 31.8029 27.1115 30.6064 23.534C29.6409 20.647 28.6668 17.7618 27.6875 14.8789C27.6413 14.7443 27.5102 14.6382 27.4189 14.519L29.5519 10.597C29.6255 10.7242 29.7218 10.8434 29.768 10.9802C30.7547 13.9002 31.7396 16.8208 32.716 19.7442C33.9866 23.5482 35.2487 27.3539 36.5182 31.1585C36.569 31.3102 36.6523 31.4505 36.7321 31.621L37.0241 31.2811C36.9996 32.7411 36.9756 34.1999 36.9517 35.6599Z" fill="#4FAA41"/>
<path fill-rule="evenodd" clip-rule="evenodd" d="M27.4183 14.519C27.5102 14.6382 27.6413 14.7443 27.687 14.8789C28.6662 17.7618 29.6403 20.6464 30.6058 23.5339C31.8023 27.1115 32.9857 30.6931 34.184 34.2695C34.9083 36.431 35.6491 38.5868 36.3894 40.7665L36.7224 40.6405L36.6477 41.6978L36.5798 41.9413C36.4641 43.0985 36.3665 44.258 36.2251 45.4128C36.1544 45.9917 36.0033 46.5597 35.8886 47.1323C35.8025 47.0074 35.6816 46.8939 35.6348 46.7554C33.2526 39.6555 30.8784 32.5529 28.5008 25.4519C27.744 23.1918 26.9832 20.9333 26.2173 18.6772C26.1785 18.5625 26.069 18.4724 25.9926 18.3709L27.4183 14.519Z" fill="#4AA73C"/>
<path fill-rule="evenodd" clip-rule="evenodd" d="M37.0235 31.2811L36.7315 31.621C36.6517 31.4505 36.5684 31.3102 36.5177 31.1585C35.2482 27.3539 33.9861 23.5482 32.7154 19.7442C31.739 16.8208 30.7541 13.9002 29.7675 10.9802C29.7213 10.8434 29.6249 10.7242 29.5513 10.597L32.189 7.1272C32.2723 7.23784 32.3909 7.3365 32.4337 7.4614C33.166 9.60578 33.8914 11.7519 34.6134 13.8997C35.2875 15.906 35.9514 17.9147 36.6335 19.9176C36.6791 20.0516 36.8382 20.1463 36.9443 20.2604L36.95 20.7155L37.0235 31.2811Z" fill="#57AE47"/>
<path fill-rule="evenodd" clip-rule="evenodd" d="M36.9443 20.2604C36.8376 20.1469 36.6791 20.0522 36.6335 19.9176C35.9519 17.9147 35.2875 15.906 34.6134 13.8997C33.8914 11.7519 33.166 9.60577 32.4337 7.4614C32.3909 7.3365 32.2723 7.23784 32.189 7.12719C33.0468 6.28712 33.8777 5.41683 34.7702 4.61554C35.5635 3.90379 36.2012 3.14071 36.2308 2.01548L36.2935 1.79135L36.5194 2.36052C36.5137 2.64796 36.488 2.93654 36.5068 3.22284C36.5394 3.72072 36.6198 4.21632 36.642 4.7142C36.6836 5.64096 36.7036 6.56943 36.7224 7.49733C36.7526 8.99041 36.78 10.4841 36.7983 11.9777L36.8764 19.1374C36.8821 19.5121 36.9215 19.8862 36.9443 20.2604Z" fill="#60B24F"/>
<path fill-rule="evenodd" clip-rule="evenodd" d="M35.8892 47.1318C36.0038 46.5592 36.155 45.9911 36.2257 45.4123C36.3671 44.258 36.4646 43.0979 36.5804 41.9408L36.6095 41.9362L36.638 41.9414C36.6711 43.3945 36.8684 44.8237 37.2454 46.2278C37.1684 46.3293 37.0606 46.4189 37.0196 46.5329C36.703 47.426 36.4042 48.3266 36.0859 49.2191C36.0426 49.3412 35.9206 49.4364 35.8356 49.543L35.5099 48.4252L35.8892 47.1318Z" fill="#A9AA88"/>
<path fill-rule="evenodd" clip-rule="evenodd" d="M35.8356 49.5436C35.9206 49.4364 36.0426 49.3417 36.086 49.2197C36.4042 48.3271 36.703 47.4266 37.0196 46.5335C37.06 46.4195 37.1684 46.3299 37.2454 46.2284L37.7923 47.4283C37.6845 47.5812 37.5351 47.7198 37.4752 47.8903L36.4281 50.9654C36.3848 51.0892 36.2382 51.1759 36.139 51.2802L35.8356 49.5436Z" fill="#B6B598"/>
<path fill-rule="evenodd" clip-rule="evenodd" d="M36.139 51.2797C36.2377 51.1753 36.3848 51.0886 36.4281 50.9648L37.4752 47.8897C37.5345 47.7192 37.6845 47.5806 37.7923 47.4278L38.3216 47.8789C38.0661 48.1315 37.9241 48.4235 38.0096 48.7925L37.8488 49.3189C37.7758 49.409 37.6697 49.4877 37.6338 49.591C37.2682 50.6381 36.9197 51.6908 36.5513 52.7374C36.5046 52.8697 36.3751 52.9741 36.2844 53.0915L36.139 51.2797Z" fill="#C2C1A7"/>
<path fill-rule="evenodd" clip-rule="evenodd" d="M36.2838 53.0909C36.3751 52.9735 36.5046 52.8691 36.5508 52.7368C36.9192 51.6903 37.2682 50.6375 37.6332 49.5904C37.6691 49.4871 37.7752 49.409 37.8482 49.3183L37.6264 51.7342C37.567 51.8026 37.4815 51.8625 37.453 51.9418L36.715 54.0565C36.6631 54.2008 36.5639 54.3297 36.4863 54.4648C36.4173 54.3747 36.2941 54.2875 36.2884 54.1939C36.2667 53.8278 36.2821 53.4588 36.2838 53.0909Z" fill="#CECDB7"/>
<path fill-rule="evenodd" clip-rule="evenodd" d="M36.4869 54.4654C36.5644 54.3302 36.6637 54.2013 36.7156 54.0571L37.4536 51.9423C37.4821 51.8625 37.5682 51.8032 37.6269 51.7347L37.6326 53.3202L37.1017 54.6815L36.4869 54.4654Z" fill="#DBDAC7"/>
<path fill-rule="evenodd" clip-rule="evenodd" d="M37.1017 54.6816L37.6326 53.3202L37.7421 54.9308L37.1017 54.6816Z" fill="#EBE9DC"/>
<path fill-rule="evenodd" clip-rule="evenodd" d="M38.009 48.7925C37.9241 48.4241 38.0655 48.1321 38.321 47.8789L38.4681 47.9792L38.009 48.7925Z" fill="#CECDB7"/>
<path fill-rule="evenodd" clip-rule="evenodd" d="M36.638 41.9419L36.6095 41.9368L36.5804 41.9413L36.6483 41.6978L36.638 41.9419Z" fill="#4FAA41"/>
</svg>
