<svg width="124" height="76" viewBox="0 0 124 76" fill="none" xmlns="http://www.w3.org/2000/svg">
<g clip-path="url(#clip0_3_56)">
<path d="M61.3002 75.7807C60.8805 75.7807 60.4887 75.6689 60.1247 75.4731L56.4026 73.2633C55.8427 72.9554 56.1226 72.8436 56.2907 72.7877C57.0462 72.5359 57.1862 72.4798 57.9698 72.0325C58.0538 71.9764 58.1659 72.0044 58.2497 72.0603L61.1045 73.7667C61.2164 73.8226 61.3563 73.8226 61.4401 73.7667L72.6071 67.3048C72.719 67.2489 72.7752 67.1368 72.7752 66.9971V54.1013C72.7752 53.9612 72.719 53.8496 72.6071 53.7935L61.4401 47.3596C61.3283 47.3035 61.1883 47.3035 61.1045 47.3596L49.9375 53.7935C49.8256 53.8494 49.7694 53.9893 49.7694 54.1011V66.9969C49.7694 67.109 49.8256 67.2486 49.9375 67.3048L52.9882 69.067C54.6394 69.9062 55.6749 68.9272 55.6749 67.9481V55.22C55.6749 55.0523 55.8149 54.8843 56.0108 54.8843H57.438C57.6061 54.8843 57.7739 55.0242 57.7739 55.22V67.9481C57.7739 70.1579 56.5704 71.4448 54.4714 71.4448C53.8277 71.4448 53.324 71.4448 51.8965 70.7453L48.958 69.067C48.2303 68.6476 47.7826 67.8641 47.7826 67.025V54.1292C47.7826 53.29 48.2303 52.5066 48.958 52.0871L60.1247 45.6252C60.8246 45.2335 61.7762 45.2335 62.4758 45.6252L73.6426 52.0871C74.3703 52.5066 74.8182 53.29 74.8182 54.1292V67.025C74.8182 67.8641 74.3703 68.6476 73.6426 69.067L62.4758 75.529C62.1119 75.697 61.692 75.7807 61.3002 75.7807ZM64.7426 66.9132C59.845 66.9132 58.8374 64.6753 58.8374 62.7731C58.8374 62.6051 58.9774 62.4374 59.1733 62.4374H60.6287C60.7965 62.4374 60.9364 62.5492 60.9364 62.7172C61.1604 64.1997 61.8041 64.927 64.7707 64.927C67.1216 64.927 68.1294 64.3955 68.1294 63.1366C68.1294 62.4093 67.8493 61.878 64.183 61.5142C61.1324 61.2064 59.2292 60.5352 59.2292 58.1015C59.2292 55.8355 61.1326 54.4927 64.323 54.4927C67.9052 54.4927 69.6686 55.7237 69.8926 58.4089C69.8926 58.4931 69.8645 58.5769 69.8085 58.6609C69.7524 58.7168 69.6686 58.7727 69.5845 58.7727H68.1292C67.9892 58.7727 67.8493 58.6609 67.8214 58.521C67.4855 56.9826 66.6179 56.4789 64.323 56.4789C61.7481 56.4789 61.4401 57.3742 61.4401 58.0454C61.4401 58.8567 61.8041 59.1084 65.2744 59.5559C68.7169 60.0037 70.3403 60.647 70.3403 63.0526C70.3122 65.5144 68.2972 66.9132 64.7426 66.9132Z" fill="#539E43"/>
<path d="M26.6521 25.3443C26.6521 24.8409 26.3722 24.365 25.9244 24.1133L14.0578 17.2878C13.8617 17.1758 13.6379 17.1198 13.4142 17.0918H13.3021C13.0783 17.0918 12.8543 17.1758 12.6584 17.2878L0.791825 24.1133C0.343837 24.365 0.0641479 24.8406 0.0641479 25.3443L0.092238 43.6949C0.092238 43.9466 0.232204 44.1984 0.455955 44.3104C0.679949 44.4503 0.959639 44.4503 1.15578 44.3104L8.20856 40.2822C8.65631 40.0305 8.93624 39.5548 8.93624 39.0514V30.4634C8.93624 29.96 9.21593 29.4844 9.66391 29.2326L12.6584 27.4982C12.8824 27.3583 13.1342 27.3022 13.3861 27.3022C13.6379 27.3022 13.8898 27.3583 14.0859 27.4982L17.0804 29.2326C17.5284 29.4844 17.8081 29.9597 17.8081 30.4634V39.0514C17.8081 39.5548 18.088 40.0305 18.5358 40.2822L25.5885 44.3104C25.8125 44.4503 26.0922 44.4503 26.3162 44.3104C26.5402 44.1984 26.6802 43.9466 26.6802 43.6949L26.6521 25.3443ZM83.6901 0.0839867C83.4663 -0.028077 83.1864 -0.028077 82.9903 0.0839867C82.7665 0.223885 82.6265 0.447528 82.6265 0.699248V18.8824C82.6265 19.0501 82.5428 19.2178 82.3747 19.3299C82.2069 19.4136 82.0388 19.4136 81.871 19.3299L78.9044 17.6235C78.6869 17.4998 78.4409 17.4347 78.1906 17.4347C77.9403 17.4347 77.6944 17.4998 77.4769 17.6235L65.6103 24.4771C65.1625 24.7288 64.8826 25.2044 64.8826 25.7078V39.3869C64.8826 39.8903 65.1625 40.3662 65.6103 40.6179L77.4769 47.4714C77.6944 47.5952 77.9403 47.6603 78.1906 47.6603C78.4409 47.6603 78.6869 47.5952 78.9044 47.4714L90.771 40.6179C91.2187 40.3662 91.4986 39.8906 91.4986 39.3869V5.28708C91.4986 4.75557 91.2187 4.2802 90.771 4.02824L83.6901 0.0839867ZM82.5987 34.8833C82.5987 35.0232 82.5428 35.135 82.4306 35.1909L78.3726 37.5406C78.3159 37.5682 78.2537 37.5826 78.1906 37.5826C78.1276 37.5826 78.0653 37.5682 78.0087 37.5406L73.9506 35.1909C73.8385 35.135 73.7826 34.9951 73.7826 34.8833V30.1836C73.7826 30.0437 73.8385 29.9319 73.9506 29.876L78.0087 27.526C78.0653 27.4984 78.1276 27.484 78.1906 27.484C78.2537 27.484 78.3159 27.4984 78.3726 27.526L82.4306 29.876C82.5428 29.9317 82.5987 30.0718 82.5987 30.1836V34.8833ZM123.18 30.0718C123.628 29.8201 123.88 29.3445 123.88 28.8408V25.512C123.88 25.0086 123.6 24.533 123.18 24.2813L111.398 17.4558C111.18 17.3321 110.934 17.267 110.684 17.267C110.434 17.267 110.188 17.3321 109.97 17.4558L98.1037 24.3091C97.6557 24.5608 97.376 25.0364 97.376 25.5401V39.2191C97.376 39.7226 97.6557 40.1982 98.1037 40.4499L109.886 47.1636C110.334 47.4153 110.866 47.4153 111.286 47.1636L118.422 43.1917C118.646 43.0796 118.786 42.8279 118.786 42.5762C118.786 42.3245 118.646 42.0728 118.422 41.9607L106.5 35.1072C106.276 34.9675 106.136 34.7436 106.136 34.4919V30.2119C106.136 29.9602 106.276 29.7085 106.5 29.5964L110.222 27.4704C110.331 27.4018 110.457 27.3655 110.586 27.3655C110.715 27.3655 110.841 27.4018 110.95 27.4704L114.672 29.5964C114.896 29.7363 115.036 29.96 115.036 30.2119V33.5688C115.036 33.8205 115.176 34.0722 115.4 34.184C115.624 34.3239 115.903 34.3239 116.127 34.184L123.18 30.0718Z" fill="#333333"/>
<path d="M110.502 29.4285C110.544 29.4011 110.592 29.3866 110.642 29.3866C110.692 29.3866 110.74 29.4011 110.782 29.4285L113.049 30.7432C113.133 30.7989 113.189 30.8829 113.189 30.9949V33.6244C113.189 33.7363 113.133 33.8202 113.049 33.8762L110.782 35.1909C110.74 35.2182 110.692 35.2328 110.642 35.2328C110.592 35.2328 110.544 35.2182 110.502 35.1909L108.235 33.8762C108.151 33.8202 108.095 33.7363 108.095 33.6244V30.9949C108.095 30.8829 108.151 30.7989 108.235 30.7432L110.502 29.4285Z" fill="#539E43"/>
<path d="M46.495 17.5117C46.2776 17.388 46.0316 17.3229 45.7814 17.3229C45.5312 17.3229 45.2852 17.388 45.0678 17.5117L33.2852 24.3089C32.8372 24.5606 32.5854 25.0362 32.5854 25.5396V39.163C32.5854 39.6664 32.8653 40.142 33.2852 40.3938L45.0678 47.1914C45.2852 47.3151 45.5312 47.3802 45.7814 47.3802C46.0316 47.3802 46.2776 47.3151 46.495 47.1914L58.2778 40.3938C58.7256 40.142 58.9777 39.6664 58.9777 39.163V25.5399C58.9777 25.0364 58.6975 24.5608 58.2778 24.3091L46.495 17.5117Z" fill="url(#paint0_linear_3_56)"/>
</g>
<defs>
<linearGradient id="paint0_linear_3_56" x1="1832.22" y1="542.935" x2="541.629" y2="2571.82" gradientUnits="userSpaceOnUse">
<stop stop-color="#41873F"/>
<stop offset="0.3288" stop-color="#418B3D"/>
<stop offset="0.6352" stop-color="#419637"/>
<stop offset="0.9319" stop-color="#3FA92D"/>
<stop offset="1" stop-color="#3FAE2A"/>
</linearGradient>
<clipPath id="clip0_3_56">
<rect width="124" height="76" fill="white"/>
</clipPath>
</defs>
</svg>
