<svg width="88" height="88" viewBox="0 0 88 88" fill="none" xmlns="http://www.w3.org/2000/svg">
<path d="M44 51.8375C48.3285 51.8375 51.8375 48.3285 51.8375 44C51.8375 39.6715 48.3285 36.1625 44 36.1625C39.6715 36.1625 36.1625 39.6715 36.1625 44C36.1625 48.3285 39.6715 51.8375 44 51.8375Z" fill="#61DAFB"/>
<path d="M73.7688 31.075C72.2563 30.525 70.675 29.975 69.025 29.4938C69.4375 27.8438 69.7812 26.1938 70.0563 24.6125C71.5 15.5375 69.9188 9.14376 65.5188 6.66876C64.2125 5.91251 62.7688 5.56876 61.1188 5.56876C56.3063 5.56876 50.1875 9.14376 44 15.125C37.8125 9.14376 31.6937 5.56876 26.8812 5.56876C25.2312 5.56876 23.7875 5.91251 22.4813 6.66876C18.0813 9.21251 16.5 15.6063 17.9438 24.6125C18.2188 26.1938 18.5625 27.8438 18.975 29.4938C17.325 29.975 15.7438 30.4563 14.2313 31.075C5.6375 34.375 0.962502 38.9125 0.962502 44C0.962502 49.0875 5.70625 53.625 14.2313 56.925C15.7438 57.475 17.325 58.025 18.975 58.5063C18.5625 60.1563 18.2188 61.8063 17.9438 63.3875C16.5 72.4625 18.0813 78.8563 22.4813 81.3313C23.7875 82.0875 25.2312 82.4313 26.8812 82.4313C31.7625 82.4313 37.8813 78.8563 44 72.875C50.1875 78.8563 56.3063 82.4313 61.1188 82.4313C62.7688 82.4313 64.2125 82.0875 65.5188 81.3313C69.9188 78.7875 71.5 72.3938 70.0563 63.3875C69.7812 61.8063 69.4375 60.1563 69.025 58.5063C70.675 58.025 72.2563 57.5438 73.7688 56.925C82.3625 53.625 87.0375 49.0875 87.0375 44C87.0375 38.9125 82.3625 34.375 73.7688 31.075ZM63.5938 10.1063C66.4125 11.7563 67.375 16.8438 66.2063 24.0625C66 25.5063 65.6562 27.0188 65.2438 28.6C61.6688 27.775 57.8875 27.225 53.9 26.8813C51.5625 23.5813 49.1562 20.625 46.75 17.9438C51.8375 12.925 56.9938 9.48751 61.1875 9.48751C62.0812 9.48751 62.9062 9.69376 63.5938 10.1063ZM55.8938 50.875C54.6563 53.075 53.2125 55.275 51.7 57.475C49.1562 57.6813 46.6125 57.75 44 57.75C41.3188 57.75 38.775 57.6813 36.3 57.475C34.7875 55.275 33.4125 53.075 32.175 50.875C30.8687 48.6063 29.6313 46.2688 28.5312 44C29.6313 41.7313 30.8687 39.3938 32.175 37.125C33.4125 34.925 34.8563 32.725 36.3688 30.525C38.9125 30.3188 41.4562 30.25 44.0687 30.25C46.75 30.25 49.2938 30.3188 51.7688 30.525C53.2813 32.725 54.6563 34.925 55.8938 37.125C57.2 39.3938 58.4375 41.7313 59.5375 44C58.3687 46.2688 57.2 48.5375 55.8938 50.875ZM61.6 48.6063C62.6312 51.0125 63.4563 53.35 64.2125 55.6875C61.875 56.2375 59.4 56.65 56.7875 56.9938C57.6125 55.6875 58.5062 54.3125 59.2625 52.8688C60.0875 51.425 60.8438 49.9813 61.6 48.6063ZM44 67.2375C42.35 65.45 40.7687 63.525 39.2562 61.5313C40.8375 61.6 42.4188 61.6688 44 61.6688C45.5812 61.6688 47.1625 61.6 48.7438 61.5313C47.2313 63.525 45.65 65.45 44 67.2375ZM31.2125 56.925C28.6 56.5813 26.125 56.1688 23.7875 55.6188C24.5437 53.35 25.3688 50.9438 26.4 48.5375C27.1563 49.9125 27.9125 51.3563 28.7375 52.7313C29.5625 54.2438 30.3875 55.55 31.2125 56.925ZM26.4 39.3938C25.3688 36.9875 24.5437 34.65 23.7875 32.3125C26.125 31.7625 28.6 31.35 31.2125 31.0063C30.3875 32.3125 29.4937 33.6875 28.7375 35.1313C27.9125 36.575 27.1563 38.0188 26.4 39.3938ZM44 20.7625C45.65 22.55 47.2313 24.475 48.7438 26.4688C47.1625 26.4 45.5812 26.3313 44 26.3313C42.4188 26.3313 40.8375 26.4 39.2562 26.4688C40.7687 24.475 42.35 22.55 44 20.7625ZM59.2625 35.2L56.7875 31.075C59.4 31.4188 61.875 31.8313 64.2125 32.3813C63.4563 34.65 62.6312 37.0563 61.6 39.4625C60.8438 38.0188 60.0875 36.575 59.2625 35.2ZM21.7938 24.0625C20.625 16.8438 21.5875 11.7563 24.4062 10.1063C25.0938 9.69376 25.9188 9.48751 26.8125 9.48751C30.9375 9.48751 36.0938 12.8563 41.25 17.9438C38.8438 20.5563 36.4375 23.5813 34.1 26.8813C30.1125 27.225 26.3313 27.8438 22.7563 28.6C22.3438 27.0188 22.0688 25.5063 21.7938 24.0625ZM4.8125 44C4.8125 40.7688 8.73125 37.3313 15.6063 34.7875C16.9813 34.2375 18.4938 33.7563 20.0063 33.3438C21.1063 36.7813 22.4812 40.425 24.1312 44.0688C22.4812 47.7125 21.0375 51.2875 20.0063 54.725C10.5188 51.975 4.8125 47.85 4.8125 44ZM24.4062 77.8938C21.5875 76.2438 20.625 71.1563 21.7938 63.9375C22 62.4938 22.3438 60.9813 22.7563 59.4C26.3313 60.225 30.1125 60.775 34.1 61.1188C36.4375 64.4188 38.8438 67.375 41.25 70.0563C36.1625 75.075 31.0063 78.5125 26.8125 78.5125C25.9188 78.5125 25.0938 78.3063 24.4062 77.8938ZM66.2063 63.9375C67.375 71.1563 66.4125 76.2438 63.5938 77.8938C62.9062 78.3063 62.0812 78.5125 61.1875 78.5125C57.0625 78.5125 51.9062 75.1438 46.75 70.0563C49.1562 67.4438 51.5625 64.4188 53.9 61.1188C57.8875 60.775 61.6688 60.1563 65.2438 59.4C65.6562 60.9813 65.9313 62.4938 66.2063 63.9375ZM72.3938 53.2125C71.0188 53.7625 69.5062 54.2438 67.9938 54.6563C66.8938 51.2188 65.5188 47.575 63.8688 43.9313C65.5188 40.2875 66.9625 36.7125 67.9938 33.275C77.4813 36.025 83.1875 40.15 83.1875 44C83.1875 47.2313 79.2 50.6688 72.3938 53.2125Z" fill="#61DAFB"/>
</svg>
