<svg width="81" height="81" viewBox="0 0 81 81" fill="none" xmlns="http://www.w3.org/2000/svg">
<g clip-path="url(#clip0_3_79)">
<path d="M49.4375 48.0962C46.9064 47.2245 44.6723 45.6571 42.9912 43.5737C41.1385 41.2525 38.7794 39.3858 36.0944 38.1165C33.4094 36.8471 30.4697 36.2086 27.5 36.25C23.5052 35.9671 19.5505 37.1992 16.4233 39.701C13.2961 42.2027 11.2259 45.7906 10.625 49.75C11.8085 47.7697 13.5898 46.2159 15.7125 45.3123C17.8351 44.4086 20.1898 44.2017 22.4375 44.7212C24.9643 45.6184 27.1948 47.1949 28.8838 49.2775C30.7466 51.5802 33.1102 53.4276 35.7946 54.6791C38.4791 55.9307 41.4136 56.5535 44.375 56.5C48.3698 56.7829 52.3245 55.5508 55.4517 53.049C58.5789 50.5473 60.6491 46.9594 61.25 43C60.088 45.004 58.3124 46.5812 56.1854 47.4989C54.0583 48.4165 51.6926 48.626 49.4375 48.0962ZM5.5625 64.9037C8.09357 65.7755 10.3277 67.3429 12.0087 69.4262C13.8615 71.7475 16.2206 73.6142 18.9056 74.8835C21.5906 76.1529 24.5303 76.7914 27.5 76.75C31.4948 77.0329 35.4495 75.8008 38.5767 73.299C41.7039 70.7973 43.7741 67.2094 44.375 63.25C43.1915 65.2303 41.4102 66.7841 39.2875 67.6877C37.1649 68.5914 34.8102 68.7983 32.5625 68.2787C30.0357 67.3816 27.8052 65.8051 26.1162 63.7225C24.2484 61.4255 21.8838 59.5822 19.2006 58.3311C16.5173 57.0801 13.5852 56.454 10.625 56.5C6.63023 56.2171 2.67547 57.4492 -0.451731 59.951C-3.57893 62.4527 -5.64911 66.0406 -6.25 70C-5.08796 67.996 -3.31237 66.4188 -1.18536 65.5011C0.941651 64.5835 3.30736 64.374 5.5625 64.9037Z" fill="black"/>
</g>
<defs>
<clipPath id="clip0_3_79">
<rect width="81" height="81" fill="white"/>
</clipPath>
</defs>
</svg>
