<svg width="46" height="46" viewBox="0 0 46 46" fill="none" xmlns="http://www.w3.org/2000/svg">
<path d="M42.0575 0.499994H3.9425C3.51405 0.494044 3.08863 0.572551 2.69052 0.731033C2.29242 0.889514 1.92943 1.12487 1.6223 1.42365C1.31516 1.72243 1.06989 2.07878 0.900484 2.47237C0.731083 2.86595 0.640871 3.28904 0.635002 3.71749V42.2825C0.640871 42.7109 0.731083 43.134 0.900484 43.5276C1.06989 43.9212 1.31516 44.2776 1.6223 44.5763C1.92943 44.8751 2.29242 45.1105 2.69052 45.269C3.08863 45.4274 3.51405 45.5059 3.9425 45.5H42.0575C42.486 45.5059 42.9114 45.4274 43.3095 45.269C43.7076 45.1105 44.0706 44.8751 44.3777 44.5763C44.6848 44.2776 44.9301 43.9212 45.0995 43.5276C45.2689 43.134 45.3591 42.7109 45.365 42.2825V3.71749C45.3591 3.28904 45.2689 2.86595 45.0995 2.47237C44.9301 2.07878 44.6848 1.72243 44.3777 1.42365C44.0706 1.12487 43.7076 0.889514 43.3095 0.731033C42.9114 0.572551 42.486 0.494044 42.0575 0.499994ZM14.2025 38.165H7.4525V17.915H14.2025V38.165ZM10.8275 15.08C9.89659 15.08 9.00381 14.7102 8.34556 14.0519C7.6873 13.3937 7.3175 12.5009 7.3175 11.57C7.3175 10.6391 7.6873 9.7463 8.34556 9.08805C9.00381 8.4298 9.89659 8.05999 10.8275 8.05999C11.3218 8.00393 11.8224 8.05292 12.2965 8.20373C12.7705 8.35455 13.2074 8.6038 13.5785 8.93516C13.9495 9.26652 14.2464 9.67252 14.4497 10.1266C14.653 10.5806 14.7581 11.0725 14.7581 11.57C14.7581 12.0675 14.653 12.5594 14.4497 13.0134C14.2464 13.4675 13.9495 13.8735 13.5785 14.2048C13.2074 14.5362 12.7705 14.7854 12.2965 14.9363C11.8224 15.0871 11.3218 15.1361 10.8275 15.08ZM38.5475 38.165H31.7975V27.2975C31.7975 24.575 30.83 22.7975 28.3775 22.7975C27.6185 22.8031 26.8794 23.0411 26.2599 23.4796C25.6403 23.9181 25.1701 24.536 24.9125 25.25C24.7364 25.7788 24.6601 26.3358 24.6875 26.8925V38.1425H17.9375C17.9375 38.1425 17.9375 19.7375 17.9375 17.8925H24.6875V20.75C25.3007 19.686 26.1925 18.8094 27.267 18.2147C28.3414 17.62 29.5578 17.3297 30.785 17.375C35.285 17.375 38.5475 20.2775 38.5475 26.51V38.165Z" fill="black"/>
</svg>
