<svg width="48" height="46" viewBox="0 0 48 46" fill="none" xmlns="http://www.w3.org/2000/svg">
<path d="M24 0.242294C18.4594 0.242524 13.0997 2.21423 8.87992 5.80461C4.66009 9.39498 1.8555 14.3697 0.967978 19.8388C0.0804527 25.3078 1.16791 30.9141 4.03577 35.6547C6.90362 40.3953 11.3647 43.9608 16.6209 45.7131C17.7875 45.9173 18.225 45.2173 18.225 44.6048C18.225 44.0506 18.1959 42.2131 18.1959 40.259C12.3333 41.3381 10.8167 38.8299 10.35 37.5174C9.83218 36.2409 9.01131 35.1096 7.95833 34.2215C7.14167 33.784 5.975 32.7048 7.92914 32.6757C8.67531 32.7566 9.39097 33.0163 10.0155 33.4326C10.64 33.8489 11.1549 34.4097 11.5167 35.0673C11.8358 35.6406 12.2649 36.1453 12.7794 36.5524C13.294 36.9596 13.8838 37.2612 14.5151 37.4401C15.1464 37.6189 15.8068 37.6714 16.4584 37.5945C17.11 37.5177 17.7401 37.313 18.3125 36.9923C18.4135 35.8061 18.9421 34.697 19.8 33.8715C14.6083 33.2882 9.18333 31.2756 9.18333 22.3507C9.15054 20.0317 10.0063 17.788 11.575 16.0799C10.8617 14.0644 10.9451 11.8525 11.8083 9.89653C11.8083 9.89653 13.7624 9.28401 18.225 12.2882C22.043 11.2381 26.0737 11.2381 29.8917 12.2882C34.3541 9.25486 36.3083 9.89653 36.3083 9.89653C37.1717 11.8525 37.2551 14.0644 36.5417 16.0799C38.1151 17.7851 38.9716 20.0307 38.9333 22.3507C38.9333 31.3048 33.4791 33.2882 28.2875 33.8715C28.8443 34.4359 29.2732 35.1136 29.545 35.8584C29.8167 36.6032 29.925 37.3978 29.8625 38.1882C29.8625 41.3091 29.8333 43.8173 29.8333 44.6049C29.8333 45.2174 30.2708 45.9465 31.4375 45.7132C36.6844 43.9466 41.1327 40.3728 43.9883 35.6297C46.8439 30.8867 47.9211 25.2832 47.0274 19.8195C46.1337 14.3558 43.3274 9.3875 39.1094 5.80149C34.8914 2.21548 29.5363 0.245176 24 0.242294Z" fill="black"/>
</svg>
